<?xml version="1.0" encoding="UTF-8"?>
<!DOCTYPE svg PUBLIC "-//W3C//DTD SVG 1.1//EN" "http://www.w3.org/Graphics/SVG/1.1/DTD/svg11.dtd">
<svg xmlns="http://www.w3.org/2000/svg" version="1.1" width="1000px" height="1000px" style="shape-rendering:geometricPrecision; text-rendering:geometricPrecision; image-rendering:optimizeQuality; fill-rule:evenodd; clip-rule:evenodd" xmlns:xlink="http://www.w3.org/1999/xlink">
<g><path style="opacity:0.953" fill="#0c0d0c" d="M 665.5,89.5 C 677.833,89.5 690.167,89.5 702.5,89.5C 702.5,101.5 702.5,113.5 702.5,125.5C 690.167,125.5 677.833,125.5 665.5,125.5C 665.5,113.5 665.5,101.5 665.5,89.5 Z"/></g>
<g><path style="opacity:0.989" fill="#0c0d0c" d="M 494.5,90.5 C 506.395,89.5193 516.561,93.1859 525,101.5C 530.167,109.167 535.333,116.833 540.5,124.5C 532.193,125.498 523.86,125.831 515.5,125.5C 515.5,149.167 515.5,172.833 515.5,196.5C 488.5,196.5 461.5,196.5 434.5,196.5C 434.5,224.5 434.5,252.5 434.5,280.5C 456.5,280.5 478.5,280.5 500.5,280.5C 500.5,306.833 500.5,333.167 500.5,359.5C 494.167,359.5 487.833,359.5 481.5,359.5C 481.5,380.5 481.5,401.5 481.5,422.5C 536.5,422.5 591.5,422.5 646.5,422.5C 646.5,427.5 646.5,432.5 646.5,437.5C 667.167,437.5 687.833,437.5 708.5,437.5C 708.5,449.167 708.5,460.833 708.5,472.5C 733.509,472.167 758.509,472.5 783.5,473.5C 800,497.167 816.5,520.833 833,544.5C 839.865,555.999 840.198,567.666 834,579.5C 804.92,620.659 776.087,661.992 747.5,703.5C 725.174,704.666 702.841,704.833 680.5,704C 673.765,687.694 665.598,672.194 656,657.5C 653.667,655.167 651.333,652.833 649,650.5C 648.383,649.551 648.549,648.718 649.5,648C 686.637,625.225 703.137,592.058 699,548.5C 691.277,510.109 669.11,483.943 632.5,470C 601.51,460.208 571.844,463.208 543.5,479C 525.625,495.302 504.958,500.302 481.5,494C 478.417,492.861 475.417,491.528 472.5,490C 433.594,460.123 392.261,456.456 348.5,479C 308.287,505.939 293.454,543.106 304,590.5C 312.713,615.94 328.546,635.606 351.5,649.5C 345.608,655.624 340.441,662.291 336,669.5C 330.083,680.833 324.583,692.333 319.5,704C 297.5,704.667 275.5,704.667 253.5,704C 224.79,662.746 195.956,621.579 167,580.5C 158.82,565.629 160.154,551.629 171,538.5C 272.39,393.443 373.39,248.109 474,102.5C 479.773,96.5355 486.607,92.5355 494.5,90.5 Z"/></g>
<g><path style="opacity:0.953" fill="#0c0d0c" d="M 605.5,122.5 C 617.833,122.5 630.167,122.5 642.5,122.5C 642.5,134.5 642.5,146.5 642.5,158.5C 630.167,158.5 617.833,158.5 605.5,158.5C 605.5,146.5 605.5,134.5 605.5,122.5 Z"/></g>
<g><path style="opacity:0.966" fill="#0c0d0c" d="M 528.5,138.5 C 547.833,138.5 567.167,138.5 586.5,138.5C 586.5,157.5 586.5,176.5 586.5,195.5C 567.167,195.5 547.833,195.5 528.5,195.5C 528.5,176.5 528.5,157.5 528.5,138.5 Z"/></g>
<g><path style="opacity:0.987" fill="#0c0d0c" d="M 654.5,163.5 C 673.833,163.5 693.167,163.5 712.5,163.5C 712.5,182.167 712.5,200.833 712.5,219.5C 693.167,219.5 673.833,219.5 654.5,219.5C 654.5,200.833 654.5,182.167 654.5,163.5 Z"/></g>
<g><path style="opacity:0.966" fill="#0c0d0c" d="M 447.5,210.5 C 466.833,210.5 486.167,210.5 505.5,210.5C 505.5,229.5 505.5,248.5 505.5,267.5C 486.167,267.5 466.833,267.5 447.5,267.5C 447.5,248.5 447.5,229.5 447.5,210.5 Z"/></g>
<g><path style="opacity:0.97" fill="#0c0d0c" d="M 557.5,213.5 C 576.833,213.5 596.167,213.5 615.5,213.5C 615.5,232.5 615.5,251.5 615.5,270.5C 596.167,270.5 576.833,270.5 557.5,270.5C 557.5,251.5 557.5,232.5 557.5,213.5 Z"/></g>
<g><path style="opacity:0.953" fill="#0c0d0c" d="M 641.5,236.5 C 653.833,236.5 666.167,236.5 678.5,236.5C 678.5,248.5 678.5,260.5 678.5,272.5C 666.167,272.5 653.833,272.5 641.5,272.5C 641.5,260.5 641.5,248.5 641.5,236.5 Z"/></g>
<g><path style="opacity:0.972" fill="#0c0d0c" d="M 590.5,285.5 C 602.5,285.5 614.5,285.5 626.5,285.5C 626.5,297.5 626.5,309.5 626.5,321.5C 614.5,321.5 602.5,321.5 590.5,321.5C 590.5,309.5 590.5,297.5 590.5,285.5 Z"/></g>
<g><path style="opacity:0.979" fill="#0c0d0c" d="M 519.5,294.5 C 531.5,294.5 543.5,294.5 555.5,294.5C 555.5,306.5 555.5,318.5 555.5,330.5C 543.5,330.5 531.5,330.5 519.5,330.5C 519.5,318.5 519.5,306.5 519.5,294.5 Z"/></g>
<g><path style="opacity:0.97" fill="#0c0d0c" d="M 672.5,297.5 C 691.833,297.5 711.167,297.5 730.5,297.5C 730.5,316.5 730.5,335.5 730.5,354.5C 711.167,354.5 691.833,354.5 672.5,354.5C 672.5,335.5 672.5,316.5 672.5,297.5 Z"/></g>
<g><path style="opacity:0.972" fill="#0c0d0c" d="M 748.5,340.5 C 760.5,340.5 772.5,340.5 784.5,340.5C 784.5,352.5 784.5,364.5 784.5,376.5C 772.5,376.5 760.5,376.5 748.5,376.5C 748.5,364.5 748.5,352.5 748.5,340.5 Z"/></g>
<g><path style="opacity:0.97" fill="#0c0d0c" d="M 576.5,343.5 C 595.833,343.5 615.167,343.5 634.5,343.5C 634.5,362.5 634.5,381.5 634.5,400.5C 615.167,400.5 595.833,400.5 576.5,400.5C 576.5,381.5 576.5,362.5 576.5,343.5 Z"/></g>
<g><path style="opacity:0.953" fill="#0c0d0c" d="M 494.5,372.5 C 506.833,372.5 519.167,372.5 531.5,372.5C 531.5,384.5 531.5,396.5 531.5,408.5C 519.167,408.5 506.833,408.5 494.5,408.5C 494.5,396.5 494.5,384.5 494.5,372.5 Z"/></g>
<g><path style="opacity:0.946" fill="#0c0d0c" d="M 659.5,388.5 C 671.833,388.5 684.167,388.5 696.5,388.5C 696.5,400.5 696.5,412.5 696.5,424.5C 684.167,424.5 671.833,424.5 659.5,424.5C 659.5,412.5 659.5,400.5 659.5,388.5 Z"/></g>
<g><path style="opacity:0.982" fill="#0c0d0c" d="M 722.5,401.5 C 741.5,401.5 760.5,401.5 779.5,401.5C 779.5,420.5 779.5,439.5 779.5,458.5C 760.5,458.5 741.5,458.5 722.5,458.5C 722.5,439.5 722.5,420.5 722.5,401.5 Z"/></g>
<g><path style="opacity:0.971" fill="#0c0d0c" d="M 374.5,495.5 C 383.975,494.989 393.309,495.822 402.5,498C 386.111,510.94 382.611,526.773 392,545.5C 403.746,560.413 418.579,564.579 436.5,558C 451.182,549.804 457.849,537.304 456.5,520.5C 466.701,527.519 477.701,533.019 489.5,537C 499.828,539.513 509.828,538.513 519.5,534C 527.662,529.753 535.662,525.253 543.5,520.5C 543.298,544.471 555.131,558.138 579,561.5C 602.617,558.553 613.95,545.22 613,521.5C 611.01,511.521 605.843,503.688 597.5,498C 636.747,488.261 654.913,503.427 652,543.5C 643.385,577.403 621.551,595.069 586.5,596.5C 574.463,596.491 563.13,593.658 552.5,588C 538.946,580.054 524.613,574.054 509.5,570C 498.14,568.509 487.14,569.842 476.5,574C 462.071,581.215 447.405,587.881 432.5,594C 400.599,601.26 375.099,591.76 356,565.5C 346.77,548.885 345.103,531.552 351,513.5C 356.135,503.853 363.968,497.853 374.5,495.5 Z"/></g>
<g><path style="opacity:0.97" fill="#0c0d0c" d="M 413.5,629.5 C 442.982,627.976 460.482,641.643 466,670.5C 467.486,681.461 467.819,692.461 467,703.5C 465.867,705.211 464.367,705.711 462.5,705C 447.869,697.673 433.202,690.34 418.5,683C 410.479,678.649 403.312,673.149 397,666.5C 388.862,648.108 394.362,635.774 413.5,629.5 Z"/></g>
<g><path style="opacity:0.969" fill="#0c0d0c" d="M 571.5,629.5 C 584.837,627.193 595.67,631.193 604,641.5C 608.907,650.077 608.574,658.41 603,666.5C 598.756,671.415 593.923,675.581 588.5,679C 570.874,688.816 552.874,697.482 534.5,705C 530.776,686.704 532.61,668.87 540,651.5C 547.363,639.631 557.863,632.298 571.5,629.5 Z"/></g>
<g><path style="opacity:0.949" fill="#0c0d0c" d="M 199.5,747.5 C 201.624,748.031 203.124,749.365 204,751.5C 224.5,785.333 245,819.167 265.5,853C 258.833,853.667 252.167,853.667 245.5,853C 240.5,845.333 235.5,837.667 230.5,830C 210.5,829.333 190.5,829.333 170.5,830C 153.625,856.918 136.625,883.751 119.5,910.5C 112.833,911.833 106.167,911.833 99.5,910.5C 132.86,856.149 166.194,801.816 199.5,747.5 Z M 199.5,783.5 C 200.496,783.414 201.329,783.748 202,784.5C 208.105,794.935 214.605,805.101 221.5,815C 207.5,815.667 193.5,815.667 179.5,815C 186.786,804.884 193.452,794.384 199.5,783.5 Z"/></g>
<g><path style="opacity:0.946" fill="#0c0d0c" d="M 615.5,750.5 C 646.596,750.444 665.763,765.444 673,795.5C 675.005,826.347 661.171,845.847 631.5,854C 599.542,857.684 579.042,844.184 570,813.5C 567.101,779.256 582.268,758.256 615.5,750.5 Z M 614.5,767.5 C 635.48,766.069 648.98,775.403 655,795.5C 657.388,815.232 649.555,829.065 631.5,837C 610.054,841.193 595.554,833.026 588,812.5C 584.524,790.105 593.357,775.105 614.5,767.5 Z"/></g>
<g><path style="opacity:0.959" fill="#0c0d0c" d="M 276.5,751.5 C 287.838,751.333 299.172,751.5 310.5,752C 336.32,755.854 346.487,770.687 341,796.5C 337.229,808.131 329.395,815.298 317.5,818C 309.507,818.5 301.507,818.666 293.5,818.5C 293.5,830.167 293.5,841.833 293.5,853.5C 287.833,853.5 282.167,853.5 276.5,853.5C 276.5,819.5 276.5,785.5 276.5,751.5 Z M 293.5,768.5 C 300.175,768.334 306.842,768.5 313.5,769C 323.594,773.356 327.094,780.856 324,791.5C 321.399,798.053 316.566,801.553 309.5,802C 304.177,802.499 298.844,802.666 293.5,802.5C 293.5,791.167 293.5,779.833 293.5,768.5 Z"/></g>
<g><path style="opacity:0.963" fill="#0c0d0c" d="M 359.5,751.5 C 382.167,751.5 404.833,751.5 427.5,751.5C 427.5,757.167 427.5,762.833 427.5,768.5C 410.5,768.5 393.5,768.5 376.5,768.5C 376.5,777.167 376.5,785.833 376.5,794.5C 391.5,794.5 406.5,794.5 421.5,794.5C 421.5,799.833 421.5,805.167 421.5,810.5C 406.5,810.5 391.5,810.5 376.5,810.5C 376.5,819.5 376.5,828.5 376.5,837.5C 394.167,837.5 411.833,837.5 429.5,837.5C 429.5,842.833 429.5,848.167 429.5,853.5C 406.167,853.5 382.833,853.5 359.5,853.5C 359.5,819.5 359.5,785.5 359.5,751.5 Z"/></g>
<g><path style="opacity:0.94" fill="#0c0d0c" d="M 689.5,751.5 C 700.838,751.333 712.172,751.5 723.5,752C 749.934,755.447 760.434,770.28 755,796.5C 752.566,804.212 748.066,810.379 741.5,815C 749.286,827.4 756.952,839.9 764.5,852.5C 757.858,853.664 751.192,853.831 744.5,853C 737.167,841.667 729.833,830.333 722.5,819C 717.511,818.501 712.511,818.334 707.5,818.5C 707.5,830.167 707.5,841.833 707.5,853.5C 701.5,853.5 695.5,853.5 689.5,853.5C 689.5,819.5 689.5,785.5 689.5,751.5 Z M 707.5,768.5 C 713.842,768.334 720.175,768.5 726.5,769C 738.751,774.595 741.917,783.429 736,795.5C 732.481,799.676 727.981,801.843 722.5,802C 717.511,802.499 712.511,802.666 707.5,802.5C 707.5,791.167 707.5,779.833 707.5,768.5 Z"/></g>
<g><path style="opacity:0.938" fill="#0c0d0c" d="M 774.5,751.5 C 781.841,751.334 789.174,751.5 796.5,752C 803.971,763.636 811.637,775.136 819.5,786.5C 826.626,775.083 833.626,763.583 840.5,752C 847.158,751.5 853.825,751.334 860.5,751.5C 860.649,752.552 860.483,753.552 860,754.5C 849.584,770.331 839.417,786.331 829.5,802.5C 853.167,838.5 876.833,874.5 900.5,910.5C 893.167,911.833 885.833,911.833 878.5,910.5C 857.47,879.303 836.637,847.969 816,816.5C 808.959,828.749 801.793,840.916 794.5,853C 787.476,853.831 780.476,853.664 773.5,852.5C 784.432,835.63 795.098,818.63 805.5,801.5C 795.16,784.816 784.826,768.149 774.5,751.5 Z"/></g>
<g><path style="opacity:0.94" fill="#0c0d0c" d="M 441.5,753.5 C 448.235,752.173 455.068,752.173 462,753.5C 469.129,775.078 476.796,796.412 485,817.5C 489.971,804.254 495.137,791.088 500.5,778C 497.34,769.522 494.34,761.022 491.5,752.5C 497.206,752.171 502.872,752.505 508.5,753.5C 516.944,774.055 525.11,794.721 533,815.5C 540.452,794.979 547.619,774.312 554.5,753.5C 560.807,752.336 567.141,752.169 573.5,753C 560.129,788.237 546.629,823.404 533,858.5C 524.991,839.133 516.991,819.799 509,800.5C 500.424,819.983 491.591,839.317 482.5,858.5C 469.004,823.331 455.338,788.331 441.5,753.5 Z"/></g>
<g><path style="opacity:0.916" fill="#0c0d0c" d="M 159.5,877.5 C 373.167,877.5 586.833,877.5 800.5,877.5C 800.5,882.5 800.5,887.5 800.5,892.5C 584.166,892.833 367.832,892.5 151.5,891.5C 154.179,886.806 156.845,882.139 159.5,877.5 Z"/></g>
<g><path style="opacity:0.817" fill="#0c0d0c" d="M 807.5,878.5 C 808.5,878.5 809.5,878.5 810.5,878.5C 810.5,881.833 810.5,885.167 810.5,888.5C 812.5,888.5 814.5,888.5 816.5,888.5C 816.5,889.5 816.5,890.5 816.5,891.5C 813.5,891.5 810.5,891.5 807.5,891.5C 807.5,887.167 807.5,882.833 807.5,878.5 Z"/></g>
<g><path style="opacity:0.78" fill="#0c0d0c" d="M 816.5,878.5 C 819.5,878.5 822.5,878.5 825.5,878.5C 825.5,879.5 825.5,880.5 825.5,881.5C 824.5,881.5 823.5,881.5 822.5,881.5C 822.5,884.833 822.5,888.167 822.5,891.5C 821.5,891.5 820.5,891.5 819.5,891.5C 819.5,888.167 819.5,884.833 819.5,881.5C 818.5,881.5 817.5,881.5 816.5,881.5C 816.5,880.5 816.5,879.5 816.5,878.5 Z"/></g>
<g><path style="opacity:0.762" fill="#0c0d0c" d="M 827.5,878.5 C 833.728,876.903 837.728,879.069 839.5,885C 838.944,887.237 837.944,889.237 836.5,891C 833.518,891.498 830.518,891.665 827.5,891.5C 827.5,887.167 827.5,882.833 827.5,878.5 Z M 830.5,881.5 C 835.328,881.385 836.661,883.552 834.5,888C 833.207,888.49 831.873,888.657 830.5,888.5C 830.5,886.167 830.5,883.833 830.5,881.5 Z"/></g>
</svg>
